<svg id="Layer_1" data-name="Layer 1" xmlns="http://www.w3.org/2000/svg" xmlns:xlink="http://www.w3.org/1999/xlink"
     viewBox="0 0 190 642.16">
  <defs>
    <linearGradient id="linear-gradient" x1="0.5" y1="321.08" x2="189.5" y2="321.08" gradientUnits="userSpaceOnUse">
      <stop offset="0" stop-color="#d7e1f2"/>
      <stop offset="0.25" stop-color="#818991"/>
      <stop offset="0.78" stop-color="#9099a2"/>
      <stop offset="1" stop-color="#d7e1f2"/>
    </linearGradient>
    <linearGradient id="linear-gradient-2" x1="18.86" y1="188.96" x2="170.42" y2="188.96"
                    gradientUnits="userSpaceOnUse">
      <stop offset="0" stop-color="#d7e1f2"/>
      <stop offset="0" stop-color="#9099a2"/>
      <stop offset="1" stop-color="#818991"/>
    </linearGradient>
  </defs>
  <title>roku</title>
  <polyline
    points="75.02 641.66 114.86 641.66 118.22 641.54 121.58 641.3 124.94 640.94 128.42 640.34 131.9 639.62 135.38 638.78 138.86 637.7 142.34 636.38 145.7 634.94 149.18 633.26 152.42 631.46 155.66 629.42 158.78 627.26 161.9 624.98 164.78 622.46 167.66 619.7 170.3 616.94 172.82 614.06 175.1 610.94 177.26 607.82 179.3 604.58 181.1 601.22 182.78 597.86 184.22 594.5 185.54 591.02 186.62 587.54 187.46 584.06 188.18 580.58 188.78 577.1 189.14 573.74 189.38 570.38 189.5 567.02 189.5 75.14 189.38 71.78 189.14 68.42 188.78 65.06 188.18 61.58 187.46 58.1 186.62 54.62 185.54 51.14 184.22 47.66 182.78 44.3 181.1 40.94 179.3 37.58 177.26 34.34 175.1 31.22 172.82 28.1 170.3 25.22 167.66 22.34 164.78 19.7 161.9 17.18 158.78 14.9 155.66 12.74 152.42 10.7 149.18 8.9 145.7 7.22 142.34 5.78 138.86 4.46 135.38 3.38 131.9 2.54 128.42 1.82 124.94 1.22 121.58 0.86 118.22 0.62 114.86 0.5 75.02 0.5 71.78 0.62 68.42 0.86 64.94 1.22 61.46 1.82 57.98 2.54 54.5 3.38 51.02 4.46 47.66 5.78 44.18 7.22 40.82 8.9 37.46 10.7 34.22 12.74 31.1 14.9 28.1 17.18 25.1 19.7 22.34 22.34 19.7 25.22 17.18 28.1 14.78 31.22 12.62 34.34 10.58 37.58 8.78 40.94 7.22 44.3 5.66 47.66 4.46 51.14 3.38 54.62 2.42 58.1 1.7 61.58 1.22 65.06 0.74 68.42 0.5 71.78 0.5 75.14 0.5 567.02 0.5 570.38 0.74 573.74 1.22 577.1 1.7 580.58 2.42 584.06 3.38 587.54 4.46 591.02 5.66 594.5 7.22 597.86 8.78 601.22 10.58 604.58 12.62 607.82 14.78 610.94 17.18 614.06 19.7 616.94 22.34 619.7 25.1 622.46 28.1 624.98 31.1 627.26 34.22 629.42 37.46 631.46 40.82 633.26 44.18 634.94 47.66 636.38 51.02 637.7 54.5 638.78 57.98 639.62 61.46 640.34 64.94 640.94 68.42 641.3 71.78 641.54 75.02 641.66"
    style="stroke:#020202;stroke-miterlimit:10;fill:url(#linear-gradient)"/>
  <polyline
    points="114.26 305.3 147.38 305.3 148.58 305.18 149.78 305.06 150.98 304.82 152.18 304.34 153.38 303.86 154.58 303.14 155.66 302.42 156.62 301.46 157.58 300.5 158.3 299.42 159.02 298.22 159.5 297.02 159.98 295.82 160.22 294.62 160.34 293.42 160.46 292.22 160.46 287.3 160.34 286.1 160.22 284.9 159.98 283.7 159.5 282.5 159.02 281.3 158.3 280.1 157.58 279.02 156.62 278.06 155.66 277.22 154.58 276.38 153.38 275.66 152.18 275.18 150.98 274.7 149.78 274.46 148.58 274.34 147.38 274.22 114.26 274.22 113.06 274.34 111.86 274.46 110.66 274.7 109.46 275.18 108.26 275.66 107.06 276.38 105.98 277.22 105.02 278.06 104.06 279.02 103.34 280.1 102.62 281.3 102.02 282.5 101.66 283.7 101.42 284.9 101.18 286.1 101.18 287.3 101.18 292.22 101.18 293.42 101.42 294.62 101.66 295.82 102.02 297.02 102.62 298.22 103.34 299.42 104.06 300.5 105.02 301.46 105.98 302.42 107.06 303.14 108.26 303.86 109.46 304.34 110.66 304.82 111.86 305.06 113.06 305.18 114.26 305.3"
    style="fill:none;stroke:#000;stroke-linecap:round;stroke-linejoin:round;stroke-width:0.375px"/>
  <polyline
    points="114.26 394.94 147.38 394.94 148.58 395.06 149.78 395.18 150.98 395.42 152.18 395.9 153.38 396.38 154.58 397.1 155.66 397.82 156.62 398.78 157.58 399.74 158.3 400.82 159.02 402.02 159.5 403.22 159.98 404.42 160.22 405.62 160.34 406.82 160.46 408.02 160.46 412.94 160.34 414.14 160.22 415.34 159.98 416.54 159.5 417.74 159.02 418.94 158.3 420.02 157.58 421.22 156.62 422.18 155.66 423.02 154.58 423.86 153.38 424.58 152.18 425.06 150.98 425.54 149.78 425.78 148.58 425.9 147.38 426.02 114.26 426.02 113.06 425.9 111.86 425.78 110.66 425.54 109.46 425.06 108.26 424.58 107.06 423.86 105.98 423.02 105.02 422.18 104.06 421.22 103.34 420.02 102.62 418.94 102.02 417.74 101.66 416.54 101.42 415.34 101.18 414.14 101.18 412.94 101.18 408.02 101.18 406.82 101.42 405.62 101.66 404.42 102.02 403.22 102.62 402.02 103.34 400.82 104.06 399.74 105.02 398.78 105.98 397.82 107.06 397.1 108.26 396.38 109.46 395.9 110.66 395.42 111.86 395.18 113.06 395.06 114.26 394.94"
    style="fill:none;stroke:#000;stroke-linecap:round;stroke-linejoin:round;stroke-width:0.375px"/>
  <polyline
    points="114.26 442.7 147.38 442.7 148.58 442.82 149.78 442.94 150.98 443.18 152.18 443.66 153.38 444.14 154.58 444.86 155.66 445.58 156.62 446.54 157.58 447.5 158.3 448.58 159.02 449.78 159.5 450.98 159.98 452.18 160.22 453.38 160.34 454.58 160.46 455.78 160.46 460.7 160.34 461.9 160.22 463.1 159.98 464.3 159.5 465.5 159.02 466.7 158.3 467.9 157.58 468.98 156.62 469.94 155.66 470.78 154.58 471.62 153.38 472.34 152.18 472.82 150.98 473.3 149.78 473.54 148.58 473.66 147.38 473.78 114.26 473.78 113.06 473.66 111.86 473.54 110.66 473.3 109.46 472.82 108.26 472.34 107.06 471.62 105.98 470.78 105.02 469.94 104.06 468.98 103.34 467.9 102.62 466.7 102.02 465.5 101.66 464.3 101.42 463.1 101.18 461.9 101.18 460.7 101.18 455.78 101.18 454.58 101.42 453.38 101.66 452.18 102.02 450.98 102.62 449.78 103.34 448.58 104.06 447.5 105.02 446.54 105.98 445.58 107.06 444.86 108.26 444.14 109.46 443.66 110.66 443.18 111.86 442.94 113.06 442.82 114.26 442.7"
    style="fill:none;stroke:#000;stroke-linecap:round;stroke-linejoin:round;stroke-width:0.375px"/>
  <polyline
    points="114.26 490.46 147.38 490.46 148.58 490.58 149.78 490.7 150.98 490.94 152.18 491.42 153.38 491.9 154.58 492.62 155.66 493.34 156.62 494.3 157.58 495.26 158.3 496.34 159.02 497.54 159.5 498.74 159.98 499.94 160.22 501.14 160.34 502.34 160.46 503.54 160.46 508.46 160.34 509.66 160.22 510.86 159.98 512.06 159.5 513.26 159.02 514.46 158.3 515.66 157.58 516.74 156.62 517.7 155.66 518.54 154.58 519.38 153.38 520.1 152.18 520.58 150.98 521.06 149.78 521.3 148.58 521.42 147.38 521.54 114.26 521.54 113.06 521.42 111.86 521.3 110.66 521.06 109.46 520.58 108.26 520.1 107.06 519.38 105.98 518.54 105.02 517.7 104.06 516.74 103.34 515.66 102.62 514.46 102.02 513.26 101.66 512.06 101.42 510.86 101.18 509.66 101.18 508.46 101.18 503.54 101.18 502.34 101.42 501.14 101.66 499.94 102.02 498.74 102.62 497.54 103.34 496.34 104.06 495.26 105.02 494.3 105.98 493.34 107.06 492.62 108.26 491.9 109.46 491.42 110.66 490.94 111.86 490.7 113.06 490.58 114.26 490.46"
    style="fill:none;stroke:#000;stroke-linecap:round;stroke-linejoin:round;stroke-width:0.375px"/>
  <polyline
    points="75.14 490.46 41.9 490.46 40.82 490.58 39.62 490.7 38.3 490.94 37.1 491.42 35.9 491.9 34.82 492.62 33.74 493.34 32.78 494.3 31.82 495.26 30.98 496.34 30.38 497.54 29.78 498.74 29.42 499.94 29.06 501.14 28.94 502.34 28.94 503.54 28.94 508.46 28.94 509.66 29.06 510.86 29.42 512.06 29.78 513.26 30.38 514.46 30.98 515.66 31.82 516.74 32.78 517.7 33.74 518.54 34.82 519.38 35.9 520.1 37.1 520.58 38.3 521.06 39.62 521.3 40.82 521.42 41.9 521.54 75.14 521.54 76.34 521.42 77.54 521.3 78.74 521.06 79.94 520.58 81.14 520.1 82.34 519.38 83.42 518.54 84.38 517.7 85.22 516.74 86.06 515.66 86.78 514.46 87.26 513.26 87.74 512.06 87.98 510.86 88.1 509.66 88.22 508.46 88.22 503.54 88.1 502.34 87.98 501.14 87.74 499.94 87.26 498.74 86.78 497.54 86.06 496.34 85.22 495.26 84.38 494.3 83.42 493.34 82.34 492.62 81.14 491.9 79.94 491.42 78.74 490.94 77.54 490.7 76.34 490.58 75.14 490.46"
    style="fill:none;stroke:#000;stroke-linecap:round;stroke-linejoin:round;stroke-width:0.375px"/>
  <polyline
    points="75.14 442.7 41.9 442.7 40.82 442.82 39.62 442.94 38.3 443.18 37.1 443.66 35.9 444.14 34.82 444.86 33.74 445.58 32.78 446.54 31.82 447.5 30.98 448.58 30.38 449.78 29.78 450.98 29.42 452.18 29.06 453.38 28.94 454.58 28.94 455.78 28.94 460.7 28.94 461.9 29.06 463.1 29.42 464.3 29.78 465.5 30.38 466.7 30.98 467.9 31.82 468.98 32.78 469.94 33.74 470.78 34.82 471.62 35.9 472.34 37.1 472.82 38.3 473.3 39.62 473.54 40.82 473.66 41.9 473.78 75.14 473.78 76.34 473.66 77.54 473.54 78.74 473.3 79.94 472.82 81.14 472.34 82.34 471.62 83.42 470.78 84.38 469.94 85.22 468.98 86.06 467.9 86.78 466.7 87.26 465.5 87.74 464.3 87.98 463.1 88.1 461.9 88.22 460.7 88.22 455.78 88.1 454.58 87.98 453.38 87.74 452.18 87.26 450.98 86.78 449.78 86.06 448.58 85.22 447.5 84.38 446.54 83.42 445.58 82.34 444.86 81.14 444.14 79.94 443.66 78.74 443.18 77.54 442.94 76.34 442.82 75.14 442.7"
    style="fill:none;stroke:#000;stroke-linecap:round;stroke-linejoin:round;stroke-width:0.375px"/>
  <polyline
    points="75.14 394.94 41.9 394.94 40.82 395.06 39.62 395.18 38.3 395.42 37.1 395.9 35.9 396.38 34.82 397.1 33.74 397.82 32.78 398.78 31.82 399.74 30.98 400.82 30.38 402.02 29.78 403.22 29.42 404.42 29.06 405.62 28.94 406.82 28.94 408.02 28.94 412.94 28.94 414.14 29.06 415.34 29.42 416.54 29.78 417.74 30.38 418.94 30.98 420.02 31.82 421.22 32.78 422.18 33.74 423.02 34.82 423.86 35.9 424.58 37.1 425.06 38.3 425.54 39.62 425.78 40.82 425.9 41.9 426.02 75.14 426.02 76.34 425.9 77.54 425.78 78.74 425.54 79.94 425.06 81.14 424.58 82.34 423.86 83.42 423.02 84.38 422.18 85.22 421.22 86.06 420.02 86.78 418.94 87.26 417.74 87.74 416.54 87.98 415.34 88.1 414.14 88.22 412.94 88.22 408.02 88.1 406.82 87.98 405.62 87.74 404.42 87.26 403.22 86.78 402.02 86.06 400.82 85.22 399.74 84.38 398.78 83.42 397.82 82.34 397.1 81.14 396.38 79.94 395.9 78.74 395.42 77.54 395.18 76.34 395.06 75.14 394.94"
    style="fill:none;stroke:#000;stroke-linecap:round;stroke-linejoin:round;stroke-width:0.375px"/>
  <polyline
    points="34.34 143.18 32.3 145.94 30.5 148.82 28.7 151.82 27.02 154.94 25.46 158.18 24.02 161.54 22.82 165.02 21.74 168.62 21.26 170.42 20.78 172.22 20.42 174.14 20.06 175.94 19.7 177.86 19.46 179.78 19.22 181.7 19.1 183.62 18.98 185.54 18.98 187.58 18.86 189.5 18.98 191.42 19.1 193.34 19.22 195.38 19.34 197.3 19.58 199.22 19.94 201.14 20.3 203.06 20.66 204.98 21.14 206.9 21.62 208.82 22.1 210.74 22.7 212.54 23.3 214.46 24.02 216.26 24.74 218.06 26.3 221.54 27.98 224.9 29.9 228.26 31.94 231.38 34.1 234.38 36.26 237.26 38.66 239.9 41.06 242.54 43.7 244.94 46.22 247.22 48.86 249.26 51.62 251.3 54.5 253.22 57.5 254.9 60.62 256.58 63.86 258.14 67.22 259.58 70.7 260.78 74.3 261.86 76.1 262.46 78.02 262.82 79.82 263.18 81.74 263.54 83.66 263.9 85.46 264.14 87.38 264.38 89.42 264.5 91.34 264.62 93.26 264.74 95.18 264.74 97.22 264.62 99.14 264.62 101.06 264.38 102.98 264.26 105.02 264.02 106.94 263.66 108.86 263.42 110.78 262.94 112.7 262.58 114.5 262.1 116.42 261.5 118.34 260.9 120.14 260.3 121.94 259.58 123.74 258.86 127.22 257.3 130.7 255.62 133.94 253.7 137.06 251.78 140.06 249.62 142.94 247.34 145.7 244.94 148.22 242.54 150.62 240.02 152.9 237.38 155.06 234.74 156.98 231.98 158.9 229.1 160.7 226.1 162.38 222.98 163.94 219.74 165.26 216.38 166.58 212.9 167.66 209.3 168.14 207.5 168.62 205.7 168.98 203.78 169.34 201.86 169.58 200.06 169.82 198.14 170.06 196.22 170.3 194.3 170.3 192.26 170.42 190.34 170.42 188.42 170.42 186.5 170.3 184.46 170.18 182.54 169.94 180.62 169.7 178.7 169.46 176.66 169.1 174.74 168.74 172.82 168.26 170.9 167.78 169.1 167.3 167.18 166.7 165.38 165.98 163.46 165.38 161.66 164.66 159.86 163.1 156.38 161.3 153.02 159.5 149.66 157.46 146.54 155.3 143.54 153.02 140.66 150.74 137.9 148.22 135.38 145.7 132.98 143.06 130.7 140.42 128.54 137.78 126.62 134.9 124.7 131.9 122.9 128.78 121.22 125.42 119.78 122.06 118.34 118.58 117.02 114.98 115.94 113.18 115.46 111.38 115.1 109.46 114.62 107.66 114.26 105.74 114.02 103.82 113.78 101.9 113.54 99.98 113.42 98.06 113.3 96.14 113.18 94.1 113.18 92.18 113.18 90.26 113.3 88.22 113.42 86.3 113.66 84.38 113.9 82.46 114.14 80.54 114.5 78.62 114.86 76.7 115.34 74.78 115.82 72.86 116.42 71.06 117.02 69.26 117.62 67.46 118.22 65.66 118.94 62.06 120.5 58.7 122.3 55.46 124.1 52.22 126.14 49.22 128.3 46.34 130.58 43.7 132.98 41.06 135.38 38.66 137.9 36.38 140.54 34.34 143.18"
    style="fill:url(#linear-gradient-2)"/>
  <polygon
    points="66.86 162.74 65.9 163.46 64.94 164.06 63.98 164.54 62.9 164.9 61.82 165.14 60.86 165.26 59.78 165.26 40.58 165.26 39.74 165.38 38.9 165.5 38.06 165.62 37.1 165.98 36.26 166.34 35.42 166.82 34.7 167.42 33.98 168.02 33.38 168.74 32.78 169.58 32.3 170.3 31.94 171.14 31.58 172.1 31.46 172.94 31.34 173.78 31.22 174.62 31.22 203.3 31.34 204.14 31.46 204.98 31.58 205.82 31.94 206.66 32.3 207.5 32.78 208.34 33.38 209.18 33.98 209.9 34.7 210.5 35.42 211.1 36.26 211.58 37.1 211.94 38.06 212.18 38.9 212.42 39.74 212.54 40.58 212.54 59.78 212.54 60.86 212.66 61.82 212.78 62.9 213.02 63.98 213.38 64.94 213.86 66.02 214.46 66.86 215.06 67.7 215.9 67.7 162.02 66.86 162.74"
    style="fill:#a0b6ff"/>
  <polygon
    points="120.86 161.18 120.14 160.22 119.54 159.26 119.06 158.18 118.7 157.22 118.46 156.14 118.34 155.06 118.34 154.1 118.34 134.9 118.34 134.06 118.22 133.1 117.98 132.26 117.62 131.42 117.26 130.58 116.78 129.74 116.18 129.02 115.58 128.3 114.86 127.58 114.14 126.98 113.3 126.5 112.46 126.14 111.62 125.9 110.66 125.66 109.82 125.54 108.98 125.54 80.3 125.54 79.46 125.54 78.62 125.66 77.78 125.9 76.94 126.14 76.1 126.5 75.26 126.98 74.42 127.58 73.7 128.3 73.1 129.02 72.5 129.74 72.02 130.58 71.66 131.42 71.42 132.26 71.18 133.1 71.06 134.06 71.06 134.9 71.06 154.1 70.94 155.06 70.82 156.14 70.58 157.22 70.22 158.18 69.74 159.26 69.26 160.22 68.54 161.18 67.7 162.02 121.58 162.02 120.86 161.18"
    style="fill:#a0b6ff"/>
  <polygon
    points="68.54 216.74 69.26 217.7 69.74 218.66 70.22 219.62 70.58 220.7 70.82 221.78 70.94 222.74 71.06 223.82 71.06 243.02 71.06 243.86 71.18 244.7 71.42 245.66 71.66 246.5 72.02 247.34 72.5 248.18 73.1 248.9 73.7 249.62 74.42 250.34 75.26 250.82 76.1 251.3 76.94 251.78 77.78 252.02 78.62 252.26 79.46 252.38 80.3 252.38 108.98 252.38 109.82 252.38 110.66 252.26 111.62 252.02 112.46 251.78 113.3 251.3 114.14 250.82 114.86 250.34 115.58 249.62 116.18 248.9 116.78 248.18 117.26 247.34 117.62 246.5 117.98 245.66 118.22 244.7 118.34 243.86 118.34 243.02 118.34 223.82 118.34 222.74 118.46 221.78 118.7 220.7 119.06 219.62 119.54 218.66 120.14 217.7 120.86 216.74 121.58 215.9 67.7 215.9 68.54 216.74"
    style="fill:#a0b6ff"/>
  <rect x="67.7" y="162.02" width="53.88" height="53.88" style="fill:#a0b6ff"/>
  <polygon
    points="157.94 172.94 157.7 172.1 157.46 171.14 157.1 170.3 156.62 169.46 156.02 168.74 155.42 168.02 154.7 167.42 153.86 166.82 153.02 166.34 152.18 165.98 151.34 165.62 150.5 165.5 149.66 165.38 148.82 165.26 129.5 165.26 128.54 165.26 127.46 165.14 126.38 164.9 125.42 164.54 124.34 164.06 123.38 163.46 122.42 162.74 121.58 162.02 121.58 215.9 122.42 215.06 123.38 214.46 124.34 213.86 125.42 213.38 126.38 213.02 127.46 212.78 128.54 212.66 129.5 212.54 148.82 212.54 149.66 212.54 150.5 212.42 151.34 212.18 152.18 211.94 153.02 211.58 153.86 211.1 154.7 210.5 155.42 209.9 156.02 209.18 156.62 208.34 157.1 207.5 157.46 206.66 157.7 205.82 157.94 204.98 158.06 204.14 158.06 203.3 158.06 174.62 158.06 173.78 157.94 172.94"
    style="fill:#a0b6ff"/>
  <polyline
    points="94.22 167.18 92.3 167.3 91.34 167.42 90.26 167.66 89.3 167.9 88.22 168.14 87.26 168.5 86.3 168.86 85.22 169.34 84.26 169.82 83.3 170.3 82.34 170.9 81.5 171.62 80.66 172.34 78.98 173.9 77.54 175.58 76.82 176.42 76.22 177.38 75.62 178.34 75.14 179.3 74.66 180.26 74.3 181.34 73.94 182.3 73.58 183.38 73.34 184.34 73.22 185.42 72.98 186.38 72.98 187.46 72.86 189.38 72.98 191.3 73.1 192.38 73.34 193.34 73.58 194.3 73.82 195.38 74.18 196.34 74.54 197.42 75.02 198.38 75.5 199.34 76.1 200.3 76.7 201.26 77.3 202.1 78.02 203.06 79.58 204.62 81.26 206.18 82.22 206.78 83.06 207.38 84.02 207.98 85.1 208.46 86.06 208.94 87.02 209.3 88.1 209.66 89.06 210.02 90.14 210.26 91.1 210.5 92.18 210.62 93.14 210.62 95.06 210.74 97.1 210.62 98.06 210.5 99.02 210.26 100.1 210.02 101.06 209.78 102.14 209.42 103.1 209.06 104.06 208.58 105.02 208.1 105.98 207.5 106.94 206.9 107.9 206.3 108.74 205.58 110.42 204.02 111.86 202.34 112.58 201.38 113.18 200.54 113.66 199.58 114.26 198.62 114.62 197.54 115.1 196.58 115.46 195.5 115.7 194.54 115.94 193.46 116.18 192.5 116.3 191.42 116.42 190.46 116.42 188.54 116.3 186.62 116.18 185.54 116.06 184.58 115.82 183.5 115.46 182.54 115.1 181.58 114.74 180.5 114.38 179.54 113.78 178.58 113.3 177.62 112.7 176.66 111.98 175.82 111.26 174.86 109.82 173.3 108.02 171.74 107.18 171.14 106.22 170.54 105.26 169.94 104.3 169.46 103.34 168.98 102.26 168.5 101.3 168.14 100.22 167.9 99.26 167.66 98.18 167.42 97.22 167.3 96.26 167.18 94.22 167.18"
    style="fill:none;stroke:#000;stroke-linecap:round;stroke-linejoin:round"/>
  <polyline
    points="89.78 319.82 99.5 319.82 100.7 319.82 101.9 320.06 103.1 320.3 104.3 320.78 105.5 321.26 106.7 321.98 107.78 322.7 108.74 323.66 109.7 324.62 110.42 325.7 111.14 326.9 111.62 328.1 112.1 329.3 112.34 330.5 112.58 331.7 112.58 332.9 112.58 338.42 112.58 339.62 112.34 340.82 112.1 342.02 111.62 343.22 111.14 344.42 110.42 345.5 109.7 346.58 108.74 347.66 107.78 348.5 106.7 349.34 105.5 349.94 104.3 350.54 103.1 350.9 101.9 351.26 100.7 351.38 99.5 351.5 89.78 351.5 88.7 351.38 87.5 351.26 86.18 350.9 84.98 350.54 83.78 349.94 82.7 349.34 81.62 348.5 80.54 347.66 79.7 346.58 78.86 345.5 78.26 344.42 77.66 343.22 77.3 342.02 76.94 340.82 76.82 339.62 76.82 338.42 76.82 332.9 76.82 331.7 76.94 330.5 77.3 329.3 77.66 328.1 78.26 326.9 78.86 325.7 79.7 324.62 80.54 323.66 81.62 322.7 82.7 321.98 83.78 321.26 84.98 320.78 86.18 320.3 87.5 320.06 88.7 319.82 89.78 319.82"
    style="fill:none;stroke:#000;stroke-linecap:round;stroke-linejoin:round;stroke-width:0.375px"/>
  <polyline
    points="137.18 320.18 146.9 320.18 147.98 320.3 149.18 320.42 150.5 320.66 151.7 321.14 152.9 321.62 153.98 322.34 155.06 323.18 156.14 324.02 156.98 324.98 157.82 326.18 158.42 327.26 159.02 328.46 159.38 329.66 159.74 330.86 159.86 332.06 159.86 333.26 159.86 338.78 159.86 339.98 159.74 341.18 159.38 342.38 159.02 343.58 158.42 344.78 157.82 345.98 156.98 347.06 156.14 348.02 155.06 348.98 153.98 349.7 152.9 350.42 151.7 350.9 150.5 351.38 149.18 351.62 147.98 351.74 146.9 351.86 137.18 351.86 135.98 351.74 134.78 351.62 133.58 351.38 132.38 350.9 131.18 350.42 129.98 349.7 128.9 348.98 127.94 348.02 126.98 347.06 126.26 345.98 125.54 344.78 125.06 343.58 124.58 342.38 124.34 341.18 124.1 339.98 124.1 338.78 124.1 333.26 124.1 332.06 124.34 330.86 124.58 329.66 125.06 328.46 125.54 327.26 126.26 326.18 126.98 324.98 127.94 324.02 128.9 323.18 129.98 322.34 131.18 321.62 132.38 321.14 133.58 320.66 134.78 320.42 135.98 320.3 137.18 320.18"
    style="fill:none;stroke:#000;stroke-linecap:round;stroke-linejoin:round;stroke-width:0.375px"/>
  <polyline
    points="52.22 320.18 42.5 320.18 41.3 320.3 40.1 320.42 38.9 320.66 37.7 321.14 36.5 321.62 35.3 322.34 34.22 323.18 33.26 324.02 32.42 324.98 31.58 326.18 30.86 327.26 30.38 328.46 29.9 329.66 29.66 330.86 29.54 332.06 29.42 333.26 29.42 338.78 29.54 339.98 29.66 341.18 29.9 342.38 30.38 343.58 30.86 344.78 31.58 345.98 32.42 347.06 33.26 348.02 34.22 348.98 35.3 349.7 36.5 350.42 37.7 350.9 38.9 351.38 40.1 351.62 41.3 351.74 42.5 351.86 52.22 351.86 53.42 351.74 54.62 351.62 55.82 351.38 57.02 350.9 58.22 350.42 59.3 349.7 60.38 348.98 61.46 348.02 62.3 347.06 63.14 345.98 63.86 344.78 64.34 343.58 64.7 342.38 65.06 341.18 65.18 339.98 65.3 338.78 65.3 333.26 65.18 332.06 65.06 330.86 64.7 329.66 64.34 328.46 63.86 327.26 63.14 326.18 62.3 324.98 61.46 324.02 60.38 323.18 59.3 322.34 58.22 321.62 57.02 321.14 55.82 320.66 54.62 320.42 53.42 320.3 52.22 320.18"
    style="fill:none;stroke:#000;stroke-linecap:round;stroke-linejoin:round;stroke-width:0.375px"/>
  <polyline
    points="114.26 72.62 147.38 72.62 148.58 72.62 149.78 72.86 150.98 73.1 152.18 73.58 153.38 74.06 154.58 74.78 155.66 75.5 156.62 76.46 157.58 77.42 158.3 78.5 159.02 79.7 159.5 80.9 159.98 82.1 160.22 83.3 160.34 84.5 160.46 85.7 160.46 90.62 160.34 91.82 160.22 93.02 159.98 94.22 159.5 95.42 159.02 96.62 158.3 97.7 157.58 98.78 156.62 99.86 155.66 100.7 154.58 101.54 153.38 102.14 152.18 102.74 150.98 103.1 149.78 103.46 148.58 103.58 147.38 103.7 114.26 103.7 113.06 103.58 111.86 103.46 110.66 103.1 109.46 102.74 108.26 102.14 107.06 101.54 105.98 100.7 105.02 99.86 104.06 98.78 103.34 97.7 102.62 96.62 102.02 95.42 101.66 94.22 101.42 93.02 101.18 91.82 101.18 90.62 101.18 85.7 101.18 84.5 101.42 83.3 101.66 82.1 102.02 80.9 102.62 79.7 103.34 78.5 104.06 77.42 105.02 76.46 105.98 75.5 107.06 74.78 108.26 74.06 109.46 73.58 110.66 73.1 111.86 72.86 113.06 72.62 114.26 72.62"
    style="fill:none;stroke:#000;stroke-linecap:round;stroke-linejoin:round;stroke-width:0.375px"/>
  <polyline
    points="75.14 72.62 41.9 72.62 40.82 72.62 39.62 72.86 38.3 73.1 37.1 73.58 35.9 74.06 34.82 74.78 33.74 75.5 32.78 76.46 31.82 77.42 30.98 78.5 30.38 79.7 29.78 80.9 29.42 82.1 29.06 83.3 28.94 84.5 28.94 85.7 28.94 90.62 28.94 91.82 29.06 93.02 29.42 94.22 29.78 95.42 30.38 96.62 30.98 97.7 31.82 98.78 32.78 99.86 33.74 100.7 34.82 101.54 35.9 102.14 37.1 102.74 38.3 103.1 39.62 103.46 40.82 103.58 41.9 103.7 75.14 103.7 76.34 103.58 77.54 103.46 78.74 103.1 79.94 102.74 81.14 102.14 82.34 101.54 83.42 100.7 84.38 99.86 85.22 98.78 86.06 97.7 86.78 96.62 87.26 95.42 87.74 94.22 87.98 93.02 88.1 91.82 88.22 90.62 88.22 85.7 88.1 84.5 87.98 83.3 87.74 82.1 87.26 80.9 86.78 79.7 86.06 78.5 85.22 77.42 84.38 76.46 83.42 75.5 82.34 74.78 81.14 74.06 79.94 73.58 78.74 73.1 77.54 72.86 76.34 72.62 75.14 72.62"
    style="fill:none;stroke:#000;stroke-linecap:round;stroke-linejoin:round;stroke-width:0.375px"/>
  <polyline
    points="141.62 188.9 137.06 192.62 136.82 192.86 136.7 193.1 136.58 193.46 136.46 193.7 136.46 194.06 136.58 194.42 136.7 194.78 136.82 195.02 137.06 195.26 137.3 195.5 137.54 195.74 137.9 195.86 138.14 195.86 138.5 195.86 138.86 195.86 139.22 195.74 139.46 195.5 147.62 188.9 139.46 182.3 139.22 182.18 138.86 182.06 138.5 181.94 138.14 181.94 137.9 182.06 137.54 182.18 137.3 182.42 137.06 182.66 136.82 182.9 136.7 183.14 136.58 183.5 136.46 183.74 136.46 184.1 136.58 184.46 136.7 184.82 136.82 185.06 137.06 185.3 141.62 188.9"
    style="fill:#fff"/>
  <polyline
    points="94.7 235.94 90.98 231.38 90.74 231.14 90.5 230.9 90.14 230.78 89.9 230.78 89.54 230.78 89.18 230.78 88.94 230.9 88.58 231.14 88.34 231.38 88.1 231.5 87.98 231.86 87.74 232.1 87.74 232.46 87.74 232.82 87.74 233.18 87.86 233.42 88.1 233.66 94.7 241.82 101.3 233.66 101.42 233.42 101.54 233.18 101.66 232.82 101.66 232.46 101.54 232.1 101.42 231.86 101.18 231.5 101.06 231.38 100.7 231.14 100.46 230.9 100.22 230.78 99.86 230.78 99.5 230.78 99.14 230.78 98.78 230.9 98.54 231.14 98.3 231.38 94.7 235.94"
    style="fill:#fff"/>
  <polyline
    points="47.66 188.9 52.22 185.3 52.46 185.06 52.7 184.82 52.82 184.46 52.94 184.1 52.94 183.74 52.82 183.5 52.7 183.14 52.58 182.9 52.34 182.66 52.1 182.42 51.86 182.18 51.5 182.06 51.14 181.94 50.78 181.94 50.54 182.06 50.18 182.18 49.94 182.3 41.78 188.9 49.94 195.5 50.18 195.74 50.54 195.86 50.78 195.86 51.14 195.86 51.5 195.86 51.86 195.74 52.1 195.5 52.34 195.26 52.58 195.02 52.7 194.78 52.82 194.42 52.94 194.06 52.94 193.7 52.82 193.46 52.7 193.1 52.46 192.86 52.22 192.62 47.66 188.9"
    style="fill:#fff"/>
  <polyline
    points="94.7 141.98 98.3 146.54 98.54 146.78 98.78 146.9 99.14 147.14 99.5 147.14 99.86 147.14 100.22 147.14 100.46 147.02 100.7 146.78 101.06 146.54 101.18 146.3 101.42 146.06 101.54 145.82 101.66 145.46 101.66 145.1 101.54 144.74 101.42 144.5 101.3 144.26 94.7 135.98 88.1 144.26 87.86 144.5 87.74 144.74 87.74 145.1 87.74 145.46 87.74 145.82 87.98 146.06 88.1 146.3 88.34 146.54 88.58 146.78 88.94 147.02 89.18 147.14 89.54 147.14 89.9 147.14 90.14 147.14 90.5 146.9 90.74 146.78 90.98 146.54 94.7 141.98"
    style="fill:#fff"/>
  <polyline
    points="75.14 305.3 41.9 305.3 40.82 305.18 39.62 305.06 38.3 304.82 37.1 304.34 35.9 303.86 34.82 303.14 33.74 302.42 32.78 301.46 31.82 300.5 30.98 299.42 30.38 298.22 29.78 297.02 29.42 295.82 29.06 294.62 28.94 293.42 28.94 292.22 28.94 287.3 28.94 286.1 29.06 284.9 29.42 283.7 29.78 282.5 30.38 281.3 30.98 280.1 31.82 279.02 32.78 278.06 33.74 277.22 34.82 276.38 35.9 275.66 37.1 275.18 38.3 274.7 39.62 274.46 40.82 274.34 41.9 274.22 75.14 274.22 76.34 274.34 77.54 274.46 78.74 274.7 79.94 275.18 81.14 275.66 82.34 276.38 83.42 277.22 84.38 278.06 85.22 279.02 86.06 280.1 86.78 281.3 87.26 282.5 87.74 283.7 87.98 284.9 88.1 286.1 88.22 287.3 88.22 292.22 88.1 293.42 87.98 294.62 87.74 295.82 87.26 297.02 86.78 298.22 86.06 299.42 85.22 300.5 84.38 301.46 83.42 302.42 82.34 303.14 81.14 303.86 79.94 304.34 78.74 304.82 77.54 305.06 76.34 305.18 75.14 305.3"
    style="fill:none;stroke:#000;stroke-linecap:round;stroke-linejoin:round;stroke-width:0.375px"/>
  <path
    d="M97.76,192.8c0,3.15-1.92,4.82-4.26,4.82s-4.11-1.88-4.11-4.65,1.81-4.8,4.25-4.8S97.76,190.08,97.76,192.8Zm-7.11.15c0,2,1.06,3.7,2.92,3.7s2.94-1.72,2.94-3.8c0-1.82-1-3.72-2.92-3.72S90.65,190.94,90.65,193Z"
    transform="translate(-2.75 -3.36)" style="fill:#fff"/>
  <path
    d="M99.29,188.31h1.18v4.42h0c.25-.35.49-.68.72-1l2.8-3.44h1.47l-3.32,3.89,3.57,5.27h-1.4l-3-4.5-.87,1v3.49H99.29Z"
    transform="translate(-2.75 -3.36)" style="fill:#fff"/>
  <path id="icon" d="M69.33,89.84h-8V84.37h0l-8,6.47,8,6.48h0V91.84h8v-2Z" transform="translate(-2.75 -3.36)"
        style="fill:#fff"/>
  <polygon points="46.63 335.66 46.62 340.67 43.04 338.16 39.45 335.65 43.05 333.15 46.64 330.65 46.63 335.66"
           style="fill:#fff"/>
  <polygon points="53.02 335.66 53.01 340.67 49.42 338.16 45.84 335.65 49.43 333.15 53.02 330.65 53.02 335.66"
           style="fill:#fff"/>
  <polygon points="142.59 336.02 142.59 341.03 146.18 338.52 149.77 336.01 146.17 333.51 142.58 331.01 142.59 336.02"
           style="fill:#fff"/>
  <polygon points="136.2 336.02 136.21 341.03 139.8 338.52 143.38 336.01 139.79 333.51 136.19 331.01 136.2 336.02"
           style="fill:#fff"/>
  <polygon points="89 336.02 89.01 341.03 92.59 338.52 96.18 336.01 92.58 333.51 88.99 331.01 89 336.02"
           style="fill:#fff"/>
  <rect x="97.15" y="331.01" width="1.55" height="10.73" style="fill:#fff"/>
  <rect x="100.97" y="331.01" width="1.55" height="10.73" style="fill:#fff"/>
  <path id="icon-2" data-name="icon" d="M132.8,98.49V93.26h3.49v5.23h4.36v-7h2.61l-8.71-7.85-8.72,7.85h2.62v7Z"
        transform="translate(-2.75 -3.36)" style="fill:#fff"/>
  <g id="settings">
    <path id="icon-3" data-name="icon"
          d="M141,293.88a6.16,6.16,0,0,0,.06-.76,6,6,0,0,0-.06-.76l1.65-1.29a.4.4,0,0,0,.09-.5l-1.56-2.7a.39.39,0,0,0-.48-.17l-1.94.78a5.63,5.63,0,0,0-1.32-.77l-.29-2.07a.39.39,0,0,0-.39-.32h-3.12a.38.38,0,0,0-.38.32l-.3,2.07a6.24,6.24,0,0,0-1.32.77l-1.94-.78a.39.39,0,0,0-.48.17l-1.56,2.7a.39.39,0,0,0,.1.5l1.64,1.29a6.19,6.19,0,0,0,0,.76,6.33,6.33,0,0,0,0,.76l-1.64,1.29a.4.4,0,0,0-.1.5l1.56,2.7a.39.39,0,0,0,.48.17l1.94-.78a5.84,5.84,0,0,0,1.32.77l.3,2.07a.38.38,0,0,0,.38.32h3.12a.39.39,0,0,0,.39-.32l.29-2.07a6,6,0,0,0,1.32-.77l1.94.78a.39.39,0,0,0,.48-.17l1.56-2.7a.4.4,0,0,0-.09-.5L141,293.88Zm-5.8,2a2.73,2.73,0,1,1,2.73-2.73,2.73,2.73,0,0,1-2.73,2.73Z"
          transform="translate(-2.75 -3.36)" style="fill:#fff"/>
  </g>
  <path d="M57.37,293.5H55.26l2.9,3.91,2.77-3.91h-2a4.69,4.69,0,1,1,4.69,4.69v1.56a6.25,6.25,0,1,0-6.26-6.25Z"
        transform="translate(-2.75 -3.36)" style="fill:#fff"/>
</svg>
